<svg xmlns="http://www.w3.org/2000/svg" viewBox="0 0 33.6 29.07"><title>camara</title><g id="Capa_2" data-name="Capa 2"><g id="Capa_1-2" data-name="Capa 1"><path d="M1.25,10.27q0,6.17,0,12.33A6,6,0,0,0,3,26.27,5.82,5.82,0,0,0,5.9,27.82H27.48a5.41,5.41,0,0,0,3.24-1.57,5.56,5.56,0,0,0,1.54-4c0-1.71.21-9.11-.08-12.52a5.08,5.08,0,0,0-.3-1.36,5.83,5.83,0,0,0-3.83-3.6c-1.48-.36-2.29.22-4-.48s-1.57-1.79-3.37-2.6c-1.08-.5-2.25-.49-4.6-.46-1.94,0-2.92,0-3.71.44C11,2.5,11.28,3.51,9.9,4.24S8,4.13,5.82,4.77a6.5,6.5,0,0,0-3,1.76A5.37,5.37,0,0,0,1.25,10.27Z" fill="none"  stroke-miterlimit="10" stroke-width="2.5"/><path d="M10.37,15.44a6.39,6.39,0,1,1,6.46,6.47A6.45,6.45,0,0,1,10.37,15.44Z" fill="none"  stroke-miterlimit="10" stroke-width="2.5"/></g></g></svg>