<svg xmlns="http://www.w3.org/2000/svg" viewBox="0 0 141.73 141.73"><title>logo_b</title><g id="Capa_2" data-name="Capa 2"><g id="Capa_1-2" data-name="Capa 1"><rect width="141.73" height="141.73" rx="34.98" fill="#1d1d1b"/><text transform="translate(43.75 96.31) scale(0.98 1)" font-size="105" fill="#fafafa" stroke="#fff" stroke-miterlimit="10" stroke-width="0.35" font-family="ArialMT, Arial" letter-spacing="-0.01em">c</text><path d="M107,128l.33,0a.81.81,0,0,1-.29.46,1,1,0,0,1-1.22-.1,1.06,1.06,0,0,1-.25-.72,1.07,1.07,0,0,1,.25-.76.91.91,0,0,1,1.28,0h0a1.1,1.1,0,0,1,.24.74v.08H106a.74.74,0,0,0,.18.49.5.5,0,0,0,.4.16.44.44,0,0,0,.31-.09A.69.69,0,0,0,107,128Zm-1.07-.52H107a.77.77,0,0,0-.12-.36.53.53,0,0,0-.4-.19.49.49,0,0,0-.38.16A.54.54,0,0,0,106,127.46Z" fill="#ddd" stroke="#ddd" stroke-miterlimit="10" stroke-width="0.1"/><path d="M107.58,128.59v-1.91h.29V127a.9.9,0,0,1,.21-.27.37.37,0,0,1,.2-.07.79.79,0,0,1,.34.1l-.11.31a.4.4,0,0,0-.24-.07.31.31,0,0,0-.19.06.34.34,0,0,0-.13.18,1.58,1.58,0,0,0,0,.38v1Z" fill="#ddd" stroke="#ddd" stroke-miterlimit="10" stroke-width="0.1"/><path d="M109.42,128.59l-.74-1.91H109l.41,1.14a1.63,1.63,0,0,1,.13.39c0-.1.07-.23.12-.37l.43-1.16h.33l-.73,1.91Z" fill="#ddd" stroke="#ddd" stroke-miterlimit="10" stroke-width="0.1"/><path d="M110.73,126.32V126h.33v.37Zm0,2.27v-1.92h.33v1.91Z" fill="#ddd" stroke="#ddd" stroke-miterlimit="10" stroke-width="0.1"/><path d="M99.13,131.81l13.11-.74a2.71,2.71,0,0,0,2.55-2.85,1.58,1.58,0,0,0-.05-.38l-.12-.58a2.53,2.53,0,0,0-2.74-2l-4.06.45a1.58,1.58,0,0,1-1.74-1.4,2.06,2.06,0,0,1,0-.43l.09-.52a2.8,2.8,0,0,1,2.51-2.33l14.46-1.4" fill="#ddd" fill-opacity="0" stroke="#ddd" stroke-width="0.82"/><path d="M131.07,127.41s-.24.38-.64,1.05a.19.19,0,0,1-.23.06.27.27,0,0,1-.07-.08l0-.13a2.33,2.33,0,0,1-.17-.69c0-.37-.06-1.13-.1-1.5,0,0,0-.05-.06,0s0,0,0,0c-.11.46-.38,1.57-.49,2a.06.06,0,0,1-.07,0h0s0,0,0,0c-.07-.34-.25-1.14-.32-1.49,0,0,0,0,0,0h0a0,0,0,0,0,0,0l-.3,1.27a1.1,1.1,0,0,1-.9.84l-.46.09a.94.94,0,0,1-.3-.05,1.06,1.06,0,0,1-.5-.41c-.21-.35-.14-1.77.8-1.73s.84,1.11.84,1.36a.78.78,0,0,1-.65.76,7.09,7.09,0,0,1-.91.12c-.85,0-1.52.18-1.52.15s.52,0,.73-.36a1,1,0,0,0,.11-.56h0a1,1,0,0,1-.11.56,1,1,0,0,1-1.27.22c-.35-.26-.12-1.3.15-1.72a.74.74,0,0,1,.52-.41.51.51,0,0,1,.35.11.56.56,0,0,1,.28.39s-.18-.47-.51-.51a.43.43,0,0,0-.33.09c-.67.42-.44,1.62-1,1.85a.72.72,0,0,1-.85-.29c0-.19.11-.27.27-.3a.33.33,0,0,1,.37.22c0,.12-.37.49-.56.44a35.56,35.56,0,0,0-4.21-1.41c-1.48-.22-4.52-.89-6.52-1.17a14.67,14.67,0,0,1-5-1.82,5.85,5.85,0,0,0-4.75-.43l-4.21,1.45a3.53,3.53,0,0,1-2.4,0l-1.1-.4a14.43,14.43,0,0,0-5.2-.87h-1" fill="#010101" fill-opacity="0" stroke="#a2a1a1" stroke-width="0.21"/><path d="M115.43,127.62a1,1,0,0,1,.3-.79.94.94,0,0,1,.6-.22.82.82,0,0,1,.64.27,1,1,0,0,1,.26.71,1.28,1.28,0,0,1-.11.58.78.78,0,0,1-.32.33.84.84,0,0,1-.47.11.87.87,0,0,1-.65-.25A1,1,0,0,1,115.43,127.62Zm.33,0a.84.84,0,0,0,.17.55.54.54,0,0,0,.76.05l0-.05a.85.85,0,0,0,.15-.56.74.74,0,0,0-.16-.54A.52.52,0,0,0,116,127h0l0,0a.84.84,0,0,0-.17.55Z" fill="#ddd" stroke="#ddd" stroke-miterlimit="10" stroke-width="0.1"/><path d="M117.67,128.57v-1.66h-.29v-.25h.29v-.21a.67.67,0,0,1,0-.28.42.42,0,0,1,.16-.21.56.56,0,0,1,.33-.08,1.55,1.55,0,0,1,.31,0l0,.28-.18,0a.24.24,0,0,0-.21.07.31.31,0,0,0-.06.23v.18h.37v.25H118v1.67Z" fill="#ddd" stroke="#ddd" stroke-miterlimit="10" stroke-width="0.1"/><path d="M119.41,128.28l0,.29a1,1,0,0,1-.24,0,.67.67,0,0,1-.28-.06.31.31,0,0,1-.13-.15,1.2,1.2,0,0,1,0-.38V126.9h-.24v-.24h.24v-.48l.32-.19v.67h.33v.25h-.33V128a1.1,1.1,0,0,0,0,.18.12.12,0,0,0,.06.06.23.23,0,0,0,.11,0Z" fill="#ddd" stroke="#ddd" stroke-miterlimit="10" stroke-width="0.1"/><path d="M119.61,128l.31,0a.39.39,0,0,0,.16.28.47.47,0,0,0,.34.11.52.52,0,0,0,.34-.09.28.28,0,0,0,.1-.21.21.21,0,0,0-.09-.18,1.42,1.42,0,0,0-.33-.11,4.91,4.91,0,0,1-.51-.15.52.52,0,0,1-.2-.19.43.43,0,0,1-.07-.25.39.39,0,0,1,.06-.24.46.46,0,0,1,.16-.18.51.51,0,0,1,.21-.1,1.26,1.26,0,0,1,.27,0,1.05,1.05,0,0,1,.4.07.45.45,0,0,1,.25.18.52.52,0,0,1,.11.29l-.31,0a.36.36,0,0,0-.13-.24.61.61,0,0,0-.3-.08.48.48,0,0,0-.31.08.23.23,0,0,0-.1.17.21.21,0,0,0,0,.12.36.36,0,0,0,.12.08l.29.08a3,3,0,0,1,.48.16.44.44,0,0,1,.29.44.53.53,0,0,1-.09.3.57.57,0,0,1-.28.23,1.1,1.1,0,0,1-.4.08.92.92,0,0,1-.58-.15A.74.74,0,0,1,119.61,128Z" fill="#ddd" stroke="#ddd" stroke-miterlimit="10" stroke-width="0.1"/><path d="M89.14,131.3l13.11-.74a2.71,2.71,0,0,0,2.55-2.85,5.54,5.54,0,0,0-.17-1,2.49,2.49,0,0,0-2.73-2l-4.07.44a1.59,1.59,0,0,1-1.74-1.42,1.88,1.88,0,0,1,0-.41l.09-.52a2.82,2.82,0,0,1,2.51-2.33l14.45-1.4" fill="#ddd" fill-opacity="0" stroke="#ddd" stroke-width="0.82"/></g></g></svg>