<svg xmlns="http://www.w3.org/2000/svg" viewBox="0 0 142.73 142.73"><title>logo_w_1</title><g id="Capa_2" data-name="Capa 2"><g id="Capa_1-2" data-name="Capa 1"><rect x="0.5" y="0.5" width="141.73" height="141.73" rx="34.98" fill="#fff" stroke="#fff"/><text transform="translate(47.25 95.81) scale(0.98 1)" font-size="105" fill="#1d1d1b" font-family="ArialMT, Arial" letter-spacing="-0.01em">c</text><path d="M116.48,25.41A59.53,59.53,0,0,0,22.54,96.78a1.23,1.23,0,0,1,.12.92l-7.41,27.46a1.23,1.23,0,0,0,1.48,1.52l28.72-6.79a1.26,1.26,0,0,1,.85.11,59.43,59.43,0,0,0,28,7h0A59.55,59.55,0,0,0,116.48,25.41ZM74.34,122.79a55.35,55.35,0,0,1-27.71-7.47l-1.4-.19q-11.86,3.09-23.73,6.21a.81.81,0,0,1-1-1Q23.78,108.23,27,96.08c-.14-.22-.33-.56-.57-1,0,0-7.38-12.71-7.38-27.62a55.28,55.28,0,1,1,55.25,55.32Z" fill="#1d1d1b"/></g></g></svg>