<svg xmlns="http://www.w3.org/2000/svg" viewBox="0 0 141.73 141.73"><title>logo_b_1</title><g id="Capa_2" data-name="Capa 2"><g id="Capa_1-2" data-name="Capa 1"><rect width="141.73" height="141.73" rx="34.98" fill="#1d1d1b"/><text transform="translate(46.75 95.31) scale(0.98 1)" font-size="105" fill="#fafafa" font-family="ArialMT, Arial" letter-spacing="-0.01em">c</text><path d="M116,24.9A59.53,59.53,0,0,0,22,96.27a1.23,1.23,0,0,1,.12.92l-7.41,27.46a1.23,1.23,0,0,0,1.48,1.52L45,119.38a1.26,1.26,0,0,1,.85.11,59.43,59.43,0,0,0,28,7h0A59.55,59.55,0,0,0,116,24.9ZM73.84,122.27a55.24,55.24,0,0,1-27.71-7.46l-1.4-.19L21,120.83a.81.81,0,0,1-1-1q3.26-12.12,6.52-24.27c-.14-.22-.33-.56-.57-1,0,0-7.38-12.71-7.38-27.62a55.28,55.28,0,1,1,55.25,55.31Z" fill="#fafafa"/></g></g></svg>