<svg xmlns="http://www.w3.org/2000/svg" viewBox="0 0 27.15 27.06"><title>stick</title><g id="Capa_2" data-name="Capa 2"><g id="Capa_1-2" data-name="Capa 1"><path d="M1.05,19.11,1,8.37A9.2,9.2,0,0,1,8.16,1l11.68.18A8.78,8.78,0,0,1,26.05,7.4c.06,1.36.09,2.77.1,4.21s0,2.89-.06,4.27A21.24,21.24,0,0,1,15.71,26l-7.78,0a9,9,0,0,1-4.65-2.58A8.9,8.9,0,0,1,1.05,19.11Z" fill="none"  stroke-miterlimit="10" stroke-width="2"/><path d="M15.3,26l0-4.69a5.91,5.91,0,0,1,5.39-6l5.25,0" fill="none"  stroke-miterlimit="10" stroke-width="2"/></g></g></svg>